<svg width="997" height="590" viewBox="0 0 997 590" fill="none" xmlns="http://www.w3.org/2000/svg">
<g id="YOJI FREYA Linear Probing Quadratic Probing">
<g id="YOJI FREYA Linear Probing Quadratic Probing_2" filter="url(#filter0_dd_175_3)">
<path d="M110.75 16.25H150.75V17.25C135 17.25 129.25 21.75 124.25 32L88.75 103.5V175.25C88.75 187.5 92.5 190 108.25 190V191H50V190C65.75 190 69.25 187.5 69.25 175.25V103.5L34.5 32C29.5 21.25 23.25 17.25 7.5 17.25V16.25H65.75V17.25C50 17.25 48.5 20.75 54 32L88.25 102.5L123 32C127.75 22.25 126.5 17.25 110.75 17.25V16.25ZM508.945 17.25C493.195 17.25 489.445 19.75 489.445 32V175.25C489.445 187.5 493.195 190 508.945 190V191H450.695V190C466.445 190 469.945 187.5 469.945 175.25V32C469.945 19.75 466.445 17.25 450.695 17.25V16.25H508.945V17.25ZM13 257.25H121V276.5H119.75C119.75 262 117.5 258.25 105.25 258.25H51.75V343.5H90.75C102.75 343.5 105.25 339.75 105.25 324H106.5V364H105.25C105.25 348.25 102.75 344.5 90.75 344.5H51.75V416.25C51.75 428.5 55.5 431 71.25 431V432H13V431C28.75 431 32.25 428.5 32.25 416.25V273C32.25 260.75 28.75 258.25 13 258.25V257.25ZM268.473 388.25C273.223 407.75 283.973 431 298.223 431V432C284.723 432 259.223 428.5 249.723 389.5C241.473 357 227.973 345.75 217.973 345.75H192.473V416.25C192.473 428.5 196.223 431 211.973 431V432H153.723V431C169.473 431 172.973 428.5 172.973 416.25V273C172.973 260.75 169.473 258.25 153.723 258.25V257H217.973C243.473 257 277.473 270.5 277.473 302.75C277.473 325.75 255.723 343 225.723 345.5C239.973 348.5 261.473 360 268.473 388.25ZM192.473 344.5H217.973C238.723 344.5 258.223 322.75 258.223 302.75C258.223 270.5 232.473 258.25 217.973 258.25H192.473V344.5ZM438.393 412.75H439.643V432H327.893V431C343.643 431 347.143 428.5 347.143 416.25V273C347.143 260.75 343.643 258.25 327.893 258.25V257.25H435.893V276.5H434.643C434.643 262 432.393 258.25 420.143 258.25H366.643V343.5H405.643C417.643 343.5 420.143 339.75 420.143 324H421.393V364H420.143C420.143 348.25 417.643 344.5 405.643 344.5H366.643V431H423.893C435.893 431 438.393 427.25 438.393 412.75ZM572.469 257.25H612.469V258.25C596.719 258.25 590.969 262.75 585.969 273L550.469 344.5V416.25C550.469 428.5 554.219 431 569.969 431V432H511.719V431C527.469 431 530.969 428.5 530.969 416.25V344.5L496.219 273C491.219 262.25 484.969 258.25 469.219 258.25V257.25H527.469V258.25C511.719 258.25 510.219 261.75 515.719 273L549.969 343.5L584.719 273C589.469 263.25 588.219 258.25 572.469 258.25V257.25ZM744.617 416.25C748.117 427.25 753.367 431 769.117 431V432H710.867V431C725.617 431 728.367 426.25 725.617 418L710.867 373.75H641.367L627.867 416.25C624.617 427 627.117 431 642.867 431V432H602.867V431C618.617 431 622.867 429 626.867 416.25L673.367 268C675.367 262 671.117 258.25 657.367 258.25V257.25H691.367L744.617 416.25ZM641.617 372.5H710.617L675.117 266.25L641.617 372.5Z" fill="#5A70B8"/>
<path d="M360.367 16.25H418.617V17.25C402.867 17.25 399.117 19.75 399.117 32V137.75C399.117 198.5 355.367 230 311.617 230C288.617 230 262.867 217 249.617 194.75C200.617 193.5 161.117 153.25 161.117 103.75C161.117 53.25 201.867 12.5 252.117 12.5C302.367 12.5 343.367 53.25 343.367 103.75C343.367 154 302.367 194.75 252.117 194.75C251.867 194.75 251.617 194.75 251.117 194.75C263.617 215.5 287.367 228.75 311.617 228.75C353.117 228.75 379.617 205.75 379.617 142.5H379.867H379.617V32C379.617 19.75 376.117 17.25 360.367 17.25V16.25ZM181.617 103.75C181.617 151 210.867 191.25 248.867 193.5C244.117 184.75 241.117 174.5 241.117 163.25C241.117 111 278.617 92.75 321.867 90.5C316.867 47.75 288.117 13.75 252.117 13.75C212.617 13.75 181.617 55 181.617 103.75ZM242.367 163.25C242.367 174.25 245.367 184.5 250.617 193.5C251.117 193.5 251.617 193.5 252.117 193.5C291.617 193.5 322.617 152.25 322.617 103.75C322.617 99.5 322.367 95.5 321.867 91.75C289.867 93.25 242.367 105 242.367 163.25Z" fill="#FF0000"/>
<path d="M32.6 508.15H32.85V512H9.8V511.8C12.95 511.8 13.65 511.3 13.65 508.85V480.2C13.65 477.75 12.95 477.25 9.8 477.25V477.05H21.45V477.25C18.3 477.25 17.55 477.75 17.55 480.2V511.8H29.7C32.15 511.8 32.6 511.3 32.6 508.15ZM45.4734 477.25C42.3234 477.25 41.5734 477.75 41.5734 480.2V508.85C41.5734 511.3 42.3234 511.8 45.4734 511.8V512H33.8234V511.8C36.9734 511.8 37.6734 511.3 37.6734 508.85V480.2C37.6734 477.75 36.9734 477.25 33.8234 477.25V477.05H45.4734V477.25ZM72.5676 477.05H80.5676V477.25C77.4176 477.25 76.6676 477.75 76.6676 480.2V512H76.4176L50.6676 479.15V508.85C50.6676 511.3 51.4176 511.8 54.5676 511.8V512H46.5676V511.8C49.7176 511.8 50.4176 511.3 50.4176 508.85V479.95C50.4176 477.75 49.7176 477.25 46.5676 477.25V477.05H53.3676L76.4176 506.6V480.2C76.4176 477.75 75.7176 477.25 72.5676 477.25V477.05ZM103.629 508.15H103.879V512H81.5285V511.8C84.6785 511.8 85.3785 511.3 85.3785 508.85V480.2C85.3785 477.75 84.6785 477.25 81.5285 477.25V477.05H103.129V480.9H102.879C102.879 478 102.429 477.25 99.9785 477.25H89.2785V494.3H97.0785C99.4785 494.3 99.9785 493.55 99.9785 490.4H100.229V498.4H99.9785C99.9785 495.25 99.4785 494.5 97.0785 494.5H89.2785V511.8H100.729C103.129 511.8 103.629 511.05 103.629 508.15ZM133.194 508.85C133.894 511.05 134.944 511.8 138.094 511.8V512H126.444V511.8C129.394 511.8 129.944 510.85 129.394 509.2L126.444 500.35H112.544L109.844 508.85C109.194 511 109.694 511.8 112.844 511.8V512H104.844V511.8C107.994 511.8 108.844 511.4 109.644 508.85L118.944 479.2C119.344 478 118.494 477.25 115.744 477.25V477.05H122.544L133.194 508.85ZM112.594 500.1H126.394L119.294 478.85L112.594 500.1ZM161.705 503.25C162.655 507.15 164.805 511.8 167.655 511.8V512C164.955 512 159.855 511.3 157.955 503.5C156.305 497 153.605 494.75 151.605 494.75H146.505V508.85C146.505 511.3 147.255 511.8 150.405 511.8V512H138.755V511.8C141.905 511.8 142.605 511.3 142.605 508.85V480.2C142.605 477.75 141.905 477.25 138.755 477.25V477H151.605C156.705 477 163.505 479.7 163.505 486.15C163.505 490.75 159.155 494.2 153.155 494.7C156.005 495.3 160.305 497.6 161.705 503.25ZM146.505 494.5H151.605C155.755 494.5 159.655 490.15 159.655 486.15C159.655 479.7 154.505 477.25 151.605 477.25H146.505V494.5ZM198.028 477.05C203.128 477.05 208.728 479.7 208.728 486.15C208.728 491.15 205.328 495.75 197.328 495.75H193.428V508.85C193.428 511.3 194.178 511.8 197.328 511.8V512H185.678V511.8C188.828 511.8 189.528 511.3 189.528 508.85V480.2C189.528 477.75 188.828 477.25 185.678 477.25V477H193.428L198.028 477.05ZM197.328 495.5C202.428 495.5 204.878 491.1 204.878 486.15C204.878 480.2 200.978 477.25 198.028 477.25H193.428V495.5H197.328ZM232.604 503.25C233.554 507.15 235.704 511.8 238.554 511.8V512C235.854 512 230.754 511.3 228.854 503.5C227.204 497 224.504 494.75 222.504 494.75H217.404V508.85C217.404 511.3 218.154 511.8 221.304 511.8V512H209.654V511.8C212.804 511.8 213.504 511.3 213.504 508.85V480.2C213.504 477.75 212.804 477.25 209.654 477.25V477H222.504C227.604 477 234.404 479.7 234.404 486.15C234.404 490.75 230.054 494.2 224.054 494.7C226.904 495.3 231.204 497.6 232.604 503.25ZM217.404 494.5H222.504C226.654 494.5 230.554 490.15 230.554 486.15C230.554 479.7 225.404 477.25 222.504 477.25H217.404V494.5ZM255.309 476.3C265.359 476.3 273.559 484.45 273.559 494.5C273.559 504.6 265.359 512.75 255.309 512.75C245.259 512.75 237.109 504.6 237.109 494.5C237.109 484.45 245.259 476.3 255.309 476.3ZM255.309 512.5C263.209 512.5 269.409 504.25 269.409 494.5C269.409 484.8 263.209 476.55 255.309 476.55C247.409 476.55 241.209 484.8 241.209 494.5C241.209 504.25 247.409 512.5 255.309 512.5ZM300.338 502.3C300.338 507.25 296.438 512 287.688 512H274.838V511.8C277.988 511.8 278.688 511.3 278.688 508.85V480.2C278.688 477.75 277.988 477.25 274.838 477.25V477L286.988 477.05C292.088 477.05 297.638 479.35 297.638 485.05C297.638 488.95 294.988 492.6 288.888 493.4C295.238 493.8 300.338 495.9 300.338 502.3ZM282.588 477.25V493.3C282.588 493.3 286.288 493.3 286.338 493.3C291.388 493.25 293.788 489.45 293.788 485.05C293.788 479.8 289.888 477.25 286.988 477.25H282.588ZM287.438 511.8C293.288 511.8 296.438 507.3 296.438 502.3C296.438 495.3 289.288 493.6 286.288 493.55H282.588V511.8H287.438ZM313.296 477.25C310.146 477.25 309.396 477.75 309.396 480.2V508.85C309.396 511.3 310.146 511.8 313.296 511.8V512H301.646V511.8C304.796 511.8 305.496 511.3 305.496 508.85V480.2C305.496 477.75 304.796 477.25 301.646 477.25V477.05H313.296V477.25ZM340.39 477.05H348.39V477.25C345.24 477.25 344.49 477.75 344.49 480.2V512H344.24L318.49 479.15V508.85C318.49 511.3 319.24 511.8 322.39 511.8V512H314.39V511.8C317.54 511.8 318.24 511.3 318.24 508.85V479.95C318.24 477.75 317.54 477.25 314.39 477.25V477.05H321.19L344.24 506.6V480.2C344.24 477.75 343.54 477.25 340.39 477.25V477.05ZM371.91 498.4H383.56V498.65C380.41 498.65 379.66 499.15 379.66 501.55V508.85C378.41 507.9 376.86 508.9 375.76 509.85C373.76 511.6 371.11 512.75 367.76 512.75C357.71 512.75 349.56 504.6 349.56 494.5C349.56 484.45 357.71 476.3 367.76 476.3C373.61 476.3 376.76 480.55 377.86 482.35C378.31 483 378.71 483.3 378.71 480.65H378.96V488.45H378.71C378.71 485.3 378.16 483.15 376.76 481.25C374.61 478.4 371.46 476.55 367.76 476.55C359.86 476.55 353.66 484.8 353.66 494.5C353.66 504.25 359.86 512.5 367.76 512.5C370.76 512.5 373.56 511.55 375.76 509.5V501.55C375.76 499.15 375.06 498.65 371.91 498.65V498.4ZM36.05 571.15C38.7 575.3 41.65 579.2 48.45 575.9V576.15C41.85 580.05 37.3 576.6 33.8 572C32.15 572.5 30.4 572.75 28.6 572.75C18.55 572.75 10.4 564.6 10.4 554.5C10.4 544.45 18.55 536.3 28.6 536.3C38.65 536.3 46.85 544.45 46.85 554.5C46.85 561.95 42.4 568.3 36.05 571.15ZM14.5 554.5C14.5 563.5 19.8 571.25 26.85 572.35C25.35 571.7 24.35 570.2 24.35 568.5C24.35 566.15 26.25 564.25 28.6 564.25C31.75 564.25 33.6 567.15 35.5 570.2C39.85 567.1 42.7 561.15 42.7 554.5C42.7 544.8 36.5 536.55 28.6 536.55C20.7 536.55 14.5 544.8 14.5 554.5ZM28.6 572.5C30.3 572.5 31.9 572.15 33.4 571.45C32.6 570.35 31.9 569.25 31.2 568.15C28.85 564.6 24.6 564.65 24.6 568.5C24.6 570.7 26.4 572.5 28.6 572.5ZM73.0254 537.05H81.0754V537.25C77.8754 537.25 77.1754 537.75 77.1754 540.2V560.35C77.1754 568.15 72.7754 572.75 64.7754 572.75C56.7254 572.75 51.8754 568.15 51.8754 560.35V540.2C51.8754 537.75 51.1754 537.25 48.0254 537.25V537.05H59.6754V537.25C56.5254 537.25 55.7754 537.75 55.7754 540.2V560.35C55.7754 567.4 58.5254 572.5 64.7754 572.5C71.3254 572.5 76.9254 569.1 76.9254 560.35V540.2C76.9254 537.75 76.1754 537.25 73.0254 537.25V537.05ZM105.215 568.85C105.915 571.05 106.965 571.8 110.115 571.8V572H98.4652V571.8C101.415 571.8 101.965 570.85 101.415 569.2L98.4652 560.35H84.5652L81.8652 568.85C81.2152 571 81.7152 571.8 84.8652 571.8V572H76.8652V571.8C80.0152 571.8 80.8652 571.4 81.6652 568.85L90.9652 539.2C91.3652 538 90.5152 537.25 87.7652 537.25V537.05H94.5652L105.215 568.85ZM84.6152 560.1H98.4152L91.3152 538.85L84.6152 560.1ZM122.427 537.05C133.377 537.05 140.627 544.45 140.627 554.5C140.627 564.6 133.377 572 122.427 572H110.777V571.8C113.927 571.8 114.627 571.3 114.627 568.85V540.2C114.627 537.75 113.927 537.25 110.777 537.25V537.05H122.427ZM122.427 571.8C130.677 571.8 136.527 564.25 136.527 554.5C136.527 544.8 130.677 537.25 122.427 537.25H118.527V571.8H122.427ZM164.977 563.25C165.927 567.15 168.077 571.8 170.927 571.8V572C168.227 572 163.127 571.3 161.227 563.5C159.577 557 156.877 554.75 154.877 554.75H149.777V568.85C149.777 571.3 150.527 571.8 153.677 571.8V572H142.027V571.8C145.177 571.8 145.877 571.3 145.877 568.85V540.2C145.877 537.75 145.177 537.25 142.027 537.25V537H154.877C159.977 537 166.777 539.7 166.777 546.15C166.777 550.75 162.427 554.2 156.427 554.7C159.277 555.3 163.577 557.6 164.977 563.25ZM149.777 554.5H154.877C159.027 554.5 162.927 550.15 162.927 546.15C162.927 539.7 157.777 537.25 154.877 537.25H149.777V554.5ZM199.551 568.85C200.251 571.05 201.301 571.8 204.451 571.8V572H192.801V571.8C195.751 571.8 196.301 570.85 195.751 569.2L192.801 560.35H178.901L176.201 568.85C175.551 571 176.051 571.8 179.201 571.8V572H171.201V571.8C174.351 571.8 175.201 571.4 176.001 568.85L185.301 539.2C185.701 538 184.851 537.25 182.101 537.25V537.05H188.901L199.551 568.85ZM178.951 560.1H192.751L185.651 538.85L178.951 560.1ZM198.845 537.05H226.045V540.9H225.795C225.795 538 225.295 537.25 222.895 537.25H214.395V568.85C214.395 571.3 215.095 571.8 218.245 571.8V572H206.595V571.8C209.745 571.8 210.495 571.3 210.495 568.85V537.25H201.995C199.545 537.25 199.045 538 199.045 540.9H198.845V537.05ZM238.589 537.25C235.439 537.25 234.689 537.75 234.689 540.2V568.85C234.689 571.3 235.439 571.8 238.589 571.8V572H226.939V571.8C230.089 571.8 230.789 571.3 230.789 568.85V540.2C230.789 537.75 230.089 537.25 226.939 537.25V537.05H238.589V537.25ZM269.742 564H269.992C268.292 568.6 264.492 572.75 258.092 572.75C248.042 572.75 239.892 564.6 239.892 554.5C239.892 544.45 248.042 536.3 258.092 536.3C262.492 536.3 265.692 538.85 267.542 541.35C267.642 541.45 267.992 542.05 268.242 542.35C268.692 543.05 269.042 543.25 269.042 540.65H269.292V548.45H269.042C269.042 545.3 268.442 543 267.092 541.25C264.942 538.4 261.792 536.55 258.092 536.55C250.192 536.55 243.992 544.8 243.992 554.5C243.992 564.25 250.192 572.5 258.092 572.5C263.092 572.5 267.442 569.9 269.742 564ZM301.641 537.05C306.741 537.05 312.341 539.7 312.341 546.15C312.341 551.15 308.941 555.75 300.941 555.75H297.041V568.85C297.041 571.3 297.791 571.8 300.941 571.8V572H289.291V571.8C292.441 571.8 293.141 571.3 293.141 568.85V540.2C293.141 537.75 292.441 537.25 289.291 537.25V537H297.041L301.641 537.05ZM300.941 555.5C306.041 555.5 308.491 551.1 308.491 546.15C308.491 540.2 304.591 537.25 301.641 537.25H297.041V555.5H300.941ZM336.217 563.25C337.167 567.15 339.317 571.8 342.167 571.8V572C339.467 572 334.367 571.3 332.467 563.5C330.817 557 328.117 554.75 326.117 554.75H321.017V568.85C321.017 571.3 321.767 571.8 324.917 571.8V572H313.267V571.8C316.417 571.8 317.117 571.3 317.117 568.85V540.2C317.117 537.75 316.417 537.25 313.267 537.25V537H326.117C331.217 537 338.017 539.7 338.017 546.15C338.017 550.75 333.667 554.2 327.667 554.7C330.517 555.3 334.817 557.6 336.217 563.25ZM321.017 554.5H326.117C330.267 554.5 334.167 550.15 334.167 546.15C334.167 539.7 329.017 537.25 326.117 537.25H321.017V554.5ZM358.922 536.3C368.972 536.3 377.172 544.45 377.172 554.5C377.172 564.6 368.972 572.75 358.922 572.75C348.872 572.75 340.722 564.6 340.722 554.5C340.722 544.45 348.872 536.3 358.922 536.3ZM358.922 572.5C366.822 572.5 373.022 564.25 373.022 554.5C373.022 544.8 366.822 536.55 358.922 536.55C351.022 536.55 344.822 544.8 344.822 554.5C344.822 564.25 351.022 572.5 358.922 572.5ZM403.951 562.3C403.951 567.25 400.051 572 391.301 572H378.451V571.8C381.601 571.8 382.301 571.3 382.301 568.85V540.2C382.301 537.75 381.601 537.25 378.451 537.25V537L390.601 537.05C395.701 537.05 401.251 539.35 401.251 545.05C401.251 548.95 398.601 552.6 392.501 553.4C398.851 553.8 403.951 555.9 403.951 562.3ZM386.201 537.25V553.3C386.201 553.3 389.901 553.3 389.951 553.3C395.001 553.25 397.401 549.45 397.401 545.05C397.401 539.8 393.501 537.25 390.601 537.25H386.201ZM391.051 571.8C396.901 571.8 400.051 567.3 400.051 562.3C400.051 555.3 392.901 553.6 389.901 553.55H386.201V571.8H391.051ZM416.909 537.25C413.759 537.25 413.009 537.75 413.009 540.2V568.85C413.009 571.3 413.759 571.8 416.909 571.8V572H405.259V571.8C408.409 571.8 409.109 571.3 409.109 568.85V540.2C409.109 537.75 408.409 537.25 405.259 537.25V537.05H416.909V537.25ZM444.003 537.05H452.003V537.25C448.853 537.25 448.103 537.75 448.103 540.2V572H447.853L422.103 539.15V568.85C422.103 571.3 422.853 571.8 426.003 571.8V572H418.003V571.8C421.153 571.8 421.853 571.3 421.853 568.85V539.95C421.853 537.75 421.153 537.25 418.003 537.25V537.05H424.803L447.853 566.6V540.2C447.853 537.75 447.153 537.25 444.003 537.25V537.05ZM475.523 558.4H487.173V558.65C484.023 558.65 483.273 559.15 483.273 561.55V568.85C482.023 567.9 480.473 568.9 479.373 569.85C477.373 571.6 474.723 572.75 471.373 572.75C461.323 572.75 453.173 564.6 453.173 554.5C453.173 544.45 461.323 536.3 471.373 536.3C477.223 536.3 480.373 540.55 481.473 542.35C481.923 543 482.323 543.3 482.323 540.65H482.573V548.45H482.323C482.323 545.3 481.773 543.15 480.373 541.25C478.223 538.4 475.073 536.55 471.373 536.55C463.473 536.55 457.273 544.8 457.273 554.5C457.273 564.25 463.473 572.5 471.373 572.5C474.373 572.5 477.173 571.55 479.373 569.5V561.55C479.373 559.15 478.673 558.65 475.523 558.65V558.4Z" fill="#7B7B7B"/>
</g>
</g>
<defs>
<filter id="filter0_dd_175_3" x="0.5" y="5.5" width="775.617" height="583.55" filterUnits="userSpaceOnUse" color-interpolation-filters="sRGB">
<feFlood flood-opacity="0" result="BackgroundImageFix"/>
<feColorMatrix in="SourceAlpha" type="matrix" values="0 0 0 0 0 0 0 0 0 0 0 0 0 0 0 0 0 0 127 0" result="hardAlpha"/>
<feOffset/>
<feGaussianBlur stdDeviation="3.5"/>
<feComposite in2="hardAlpha" operator="out"/>
<feColorMatrix type="matrix" values="0 0 0 0 1 0 0 0 0 1 0 0 0 0 1 0 0 0 0.25 0"/>
<feBlend mode="normal" in2="BackgroundImageFix" result="effect1_dropShadow_175_3"/>
<feColorMatrix in="SourceAlpha" type="matrix" values="0 0 0 0 0 0 0 0 0 0 0 0 0 0 0 0 0 0 127 0" result="hardAlpha"/>
<feOffset dy="4"/>
<feGaussianBlur stdDeviation="2.5"/>
<feComposite in2="hardAlpha" operator="out"/>
<feColorMatrix type="matrix" values="0 0 0 0 0 0 0 0 0 0 0 0 0 0 0 0 0 0 0.25 0"/>
<feBlend mode="normal" in2="effect1_dropShadow_175_3" result="effect2_dropShadow_175_3"/>
<feBlend mode="normal" in="SourceGraphic" in2="effect2_dropShadow_175_3" result="shape"/>
</filter>
</defs>
</svg>
